<?xml version="1.0" encoding="utf-8" ?><svg xmlns="http://www.w3.org/2000/svg" xmlns:xlink="http://www.w3.org/1999/xlink" width="2351" height="1145" viewBox="0 0 2351 1145"><path fill="#142C41" transform="scale(1.31345 1.31345)" d="M380.733 216.136L498.858 216.132C521.773 216.107 544.545 215.415 567.404 217.041C614.712 220.405 632.418 258.186 612.936 299.536C598.448 330.287 576.882 344.13 546.102 355.519C574.868 363.248 592.941 380.121 587.326 412.709C581.813 444.712 562.861 470.181 536.888 489.108C495.999 517.447 432.303 513.345 384.212 513.344L279.808 513.299C290.091 480.667 302.69 445.8 313.755 413.236L380.733 216.136ZM470.694 444.423C496.276 431.519 511.494 393.888 472.844 389.951C455.001 388.133 432.853 389.29 414.595 389.375L394.387 449.378C414.967 449.438 452.534 451.71 470.694 444.423ZM501.009 328.121C511.971 321.928 518.408 314.855 522.108 302.355C532.122 268.516 484.463 277.919 465.485 276.526C461.536 276.237 456.889 276.688 452.941 276.582C446.687 295.366 440.315 314.111 433.825 332.816C454.894 332.785 481.692 334.932 501.009 328.121Z"/><path fill="#142C41" transform="scale(1.31345 1.31345)" d="M979.386 216.149L1062.66 216.147C1053.1 247.977 1039.59 284.458 1028.7 316.51L961.783 513.415C937.107 512.691 909.33 513.335 884.413 513.351C887.878 502.849 891.464 492.387 895.171 481.967C877.029 497.003 867.707 505.082 845.394 513.176C788.356 530.045 746.639 506.322 753.251 442.751C757.859 398.442 780.604 350.945 814.93 322.164C838.564 302.347 869.823 290.462 900.937 293.819C921.576 296.001 932.057 303.297 944.58 318.725C955.423 284.909 967.888 249.881 979.386 216.149ZM864.618 457.69C880.397 455.176 891.838 447.346 901.287 434.428C915.822 414.555 938.747 355.686 894.758 355.096C857.871 358.218 838.82 404.121 838.329 436.943C838.106 451.804 851.126 457.951 864.618 457.69Z"/><path fill="#E6533F" transform="scale(1.31345 1.31345)" d="M1389.04 216.127L1473.6 216.109C1457.09 266.404 1439.03 319.711 1421.33 369.497C1448.05 347.081 1480.24 318.82 1507.36 298.144C1539.76 297.374 1576.47 298.12 1609.14 298.117C1596.83 306.444 1583.11 317.066 1570.89 326.027L1506.17 373.648C1515.29 410.452 1524.23 447.301 1532.98 484.196C1535.47 493.938 1538 503.524 1539.96 513.395C1508.93 513.664 1477.88 513.097 1446.81 513.614C1443.62 486.084 1436.55 455.251 1432.92 427.017C1420.34 437.183 1404.72 447.625 1391.51 457.772L1372.54 513.437L1287.97 513.527L1351.04 327.759C1363.44 291.232 1375.9 252.103 1389.04 216.127Z"/><path fill="#E6533F" transform="scale(1.31345 1.31345)" d="M1115.92 216.128C1143.35 216.453 1171.35 216.156 1198.82 216.15L1125.72 431.211L1106.98 486.73C1105.16 492.136 1099.7 509.341 1097.33 513.433L1014.84 513.532C1018.44 501.747 1022.85 489.375 1026.92 477.716C1057.21 390.816 1085.34 302.903 1115.92 216.128Z"/><path fill="#152C41" transform="scale(1.31345 1.31345)" d="M1340.37 178.711C1355.53 205.794 1344.67 235.874 1318.15 250.6C1304.14 258.344 1287.65 260.257 1272.24 255.924C1257.04 251.525 1243.31 239.729 1238.11 224.576C1229.08 198.257 1245.04 171.214 1268.1 158.684C1292.31 145.531 1326.11 149.214 1336.11 177.886C1336.64 179.394 1336.97 181.171 1337.58 182.602L1337.87 180.44L1338.88 179.459C1339.4 180.165 1339.42 180.514 1339.65 181.382L1340.37 178.711Z"/><path fill="#FEFEFE" transform="scale(1.31345 1.31345)" d="M1337.87 180.44L1338.88 179.459C1339.4 180.165 1339.42 180.514 1339.65 181.382C1342.48 195.19 1339.68 208.653 1331.93 220.415C1326.96 227.845 1320.5 234.162 1312.96 238.968L1312.64 237.786C1325.52 229.652 1336.37 210.821 1337.68 195.798C1338.06 191.456 1337.34 187.119 1337.57 182.889L1337.58 182.602L1337.87 180.44Z"/><path fill="#AAAEB6" transform="scale(1.31345 1.31345)" d="M1304.42 243.621C1306.95 241.616 1309.96 239.633 1312.64 237.786L1312.96 238.968C1311.71 240.27 1306.3 242.747 1304.42 243.621Z"/><path fill="#FEFEFE" transform="scale(1.31345 1.31345)" d="M1291.47 157.514C1299.93 156.156 1311.02 159.042 1317.82 164.207C1335.36 177.529 1332.16 202.358 1319.77 218.084C1309.85 230.678 1297.66 237.84 1281.8 239.97C1271.94 240.556 1263.01 239.237 1255.01 232.917C1248.43 227.74 1244.22 220.128 1243.32 211.803C1241.93 199.553 1246.18 187.986 1253.76 178.463C1263 166.689 1276.59 159.138 1291.47 157.514Z"/><path fill="#152C41" transform="scale(1.31345 1.31345)" d="M1293.07 162.323C1323.98 159.792 1332.97 192.211 1316.29 213.826C1306.79 226.138 1296.66 232.476 1281.31 234.937L1281.05 234.969C1273.24 235.869 1264.21 233.704 1258.16 228.721C1242.5 215.807 1248.09 192.717 1260.04 179.264C1268.91 169.268 1279.86 163.588 1293.07 162.323Z"/><path fill="#E6533F" transform="scale(1.31345 1.31345)" d="M745.903 144.903C750.784 144.09 751.9 145.935 754.347 149.867C757.014 154.151 759.431 158.634 761.962 163.003L778.5 191.581L791.501 214.04C793.846 218.1 796.56 222.241 798.464 226.515C799.033 227.793 799.267 229.132 798.983 230.517C798.557 232.598 796.119 234.217 794.442 235.304C787.105 240.061 779.109 244.14 771.51 248.49C767.1 251.014 762.658 254.235 758.021 256.25C756.669 256.837 754.803 257.423 753.318 257.058C749.112 256.026 738.32 234.824 735.797 230.404C724.781 236.716 713.25 242.887 702.124 249.081C691.679 254.695 681.289 260.411 670.955 266.226C665.743 257.875 659.638 245.846 654.554 236.844C656.089 236.046 657.662 235.155 659.175 234.304C679.037 223.132 699.261 212.545 719.136 201.407C714.792 195.327 711.094 187.329 707.006 180.965C703.863 176.072 700.791 171.053 707.003 167.398C719.812 159.862 732.797 151.876 745.903 144.903Z"/><path fill="#344258" fill-opacity="0.98823529" transform="scale(1.31345 1.31345)" d="M1336.55 173.319C1338.07 175.166 1339.07 176.72 1340.37 178.711L1339.65 181.382C1339.42 180.514 1339.4 180.165 1338.88 179.459L1337.87 180.44C1338.65 177.826 1337.53 175.917 1336.55 173.319Z"/><path fill="#152C41" transform="scale(1.31345 1.31345)" d="M672.047 282.884C701.529 282.856 733.26 283.774 762.853 284.478C759.942 294.914 756.293 305.924 753.042 316.324L735.418 372.621L691.317 513.697L596.823 513.697L596.823 513.265C598.106 511.489 608.065 479.099 609.362 475.116L652.318 343.27L665.525 302.612C667.027 297.983 670.237 287.072 672.047 282.884Z"/><path fill="#E6533F" transform="scale(1.31345 1.31345)" d="M1220.66 282.757C1250.12 283.109 1281.76 284.58 1310.92 284.207C1307.33 298.559 1300.69 317.5 1296.2 332.168L1256.85 458.786L1246.83 491.161C1244.6 498.193 1241.67 506.628 1239.8 513.697L1146.03 513.697C1150.55 497.834 1156.77 479.891 1161.86 464.046L1195.27 360.772L1212.43 307.721C1213.83 303.332 1218.98 286.142 1220.66 282.757Z"/></svg>